{"asset":{"version":"2.0","generator":"babylon.js glTF exporter for 3dsmax 2018 v20211102.1"},"scene":0,"scenes":[{"nodes":[0,1]}],"nodes":[{"mesh":0,"translation":[5.14998627,-0.213710174,12.4038715],"scale":[1.0,1.47060573,1.0],"name":"Cylinder002"},{"mesh":1,"translation":[9.02028751,2.638668,11.436986],"rotation":[0.08390063,-0.637288451,0.09998886,0.759490848],"scale":[2.97299862,1.02876234,2.97299838],"name":"Object007"}],"meshes":[{"primitives":[{"attributes":{"POSITION":1,"NORMAL":2,"TEXCOORD_0":3},"indices":0,"material":0},{"attributes":{"POSITION":5,"NORMAL":6,"TEXCOORD_0":7},"indices":4,"material":1}],"name":"Cylinder002"},{"primitives":[{"attributes":{"POSITION":9,"NORMAL":10,"TEXCOORD_0":11},"indices":8,"material":2}],"name":"Object007"}],"accessors":[{"bufferView":0,"componentType":5123,"count":8658,"type":"SCALAR","name":"accessorIndices"},{"bufferView":1,"componentType":5126,"count":1667,"max":[32.2739143,2.55139732,25.7388268],"min":[-25.4452038,0.203244492,-22.48434],"type":"VEC3","name":"accessorPositions"},{"bufferView":1,"byteOffset":20004,"componentType":5126,"count":1667,"type":"VEC3","name":"accessorNormals"},{"bufferView":2,"componentType":5126,"count":1667,"type":"VEC2","name":"accessorUVs"},{"bufferView":0,"byteOffset":17316,"componentType":5123,"count":4440,"type":"SCALAR","name":"accessorIndices"},{"bufferView":1,"byteOffset":40008,"componentType":5126,"count":1455,"max":[37.0123024,6.35358334,29.149559],"min":[-30.1126442,0.203244492,-26.5404835],"type":"VEC3","name":"accessorPositions"},{"bufferView":1,"byteOffset":57468,"componentType":5126,"count":1455,"type":"VEC3","name":"accessorNormals"},{"bufferView":2,"byteOffset":13336,"componentType":5126,"count":1455,"type":"VEC2","name":"accessorUVs"},{"bufferView":0,"byteOffset":26196,"componentType":5123,"count":8988,"type":"SCALAR","name":"accessorIndices"},{"bufferView":1,"byteOffset":74928,"componentType":5126,"count":2480,"max":[5.821948,7.31804752,7.438267],"min":[-5.82194853,-7.318046,-7.438267],"type":"VEC3","name":"accessorPositions"},{"bufferView":1,"byteOffset":104688,"componentType":5126,"count":2480,"type":"VEC3","name":"accessorNormals"},{"bufferView":2,"byteOffset":24976,"componentType":5126,"count":2480,"type":"VEC2","name":"accessorUVs"}],"bufferViews":[{"buffer":0,"byteLength":44172,"name":"bufferViewScalar"},{"buffer":0,"byteOffset":44172,"byteLength":134448,"byteStride":12,"name":"bufferViewFloatVec3"},{"buffer":0,"byteOffset":178620,"byteLength":44816,"byteStride":8,"name":"bufferViewFloatVec2"}],"buffers":[{"uri":"ds01.bin","byteLength":223436}],"materials":[{"pbrMetallicRoughness":{"baseColorTexture":{"index":0},"metallicFactor":0.0,"roughnessFactor":0.450053632},"name":"Material #159"},{"pbrMetallicRoughness":{"baseColorTexture":{"index":1},"metallicFactor":0.0,"roughnessFactor":0.450053632},"name":"Material #158"},{"pbrMetallicRoughness":{"baseColorTexture":{"index":2},"metallicFactor":0.0,"roughnessFactor":0.450053632},"name":"Material #194"}],"textures":[{"sampler":0,"source":0,"name":"ground2.jpg"},{"sampler":0,"source":1,"name":"side.jpg"},{"sampler":0,"source":2,"name":"assets.jpg"}],"images":[{"uri":"ground2.jpg"},{"uri":"side.jpg"},{"uri":"assets.jpg"}],"samplers":[{"magFilter":9729,"minFilter":9987}]}